# xmcd
#
# Track frame offsets: 
#        150
#        17650
#        43309
#        64116
#        86680
#        115223
#        135649
#        160306
#        184595
#        204652
#
# Disc length: 3097 seconds
#
# Revision: 0
# Processed by: cddbd v1.5.2PL0 Copyright (c) Steve Scherf et al.
# Submitted via: ExactAudioCopy v1.0b3
#
DISCID=890c170a
DTITLE=Mong Thi - Vi Dau Cau Van
DYEAR=1998
DGENRE=
TTITLE0=Chut ky niem buon
TTITLE1=Nguoi em sau mong
TTITLE2=Mong Thi, Chi Tam - Vi dau cau van dong dinh
TTITLE3=Thuong ai mat doi mat cho
TTITLE4=Ky niem buon (Co nho hom nao)
TTITLE5=Tinh yeu la gi
TTITLE6=Tinh yeu don phuong
TTITLE7=Muoi hai ben nuoc
TTITLE8=Ai thuong yeu em
TTITLE9=Loi ta tu
EXTD=
EXTT0=
EXTT1=
EXTT2=
EXTT3=
EXTT4=
EXTT5=
EXTT6=
EXTT7=
EXTT8=
EXTT9=
PLAYORDER=
